<?xml version="1.0" standalone="no"?><!DOCTYPE svg PUBLIC "-//W3C//DTD SVG 1.1//EN" "http://www.w3.org/Graphics/SVG/1.1/DTD/svg11.dtd"><svg t="1568796743796" class="icon" viewBox="0 0 1024 1024" version="1.1" xmlns="http://www.w3.org/2000/svg" p-id="1990" xmlns:xlink="http://www.w3.org/1999/xlink" width="200" height="200"><defs><style type="text/css"></style></defs><path d="M511.20463568 199.42182457c-34.46578693 0-62.43609866 27.97031171-62.43609865 62.43609865v111.48356469c0 34.46578693 27.97031171 62.43609866 62.43609865 62.43609866s62.43609866-27.97031171 62.43609867-62.43609866v-111.48356469c0-34.46578693-27.97031171-62.43609866-62.43609867-62.43609865z" p-id="1991"></path><path d="M752.46514429 132.08097931c-64.42450944-64.42450944-150.05873392-99.95078213-241.26050861-99.95078214-91.06921396 0-176.83599917 35.52627269-241.26050859 99.95078214C205.51961765 196.50548875 169.99334495 282.13971323 169.99334495 373.2089272v278.77519207c0 91.20177469 35.52627269 176.83599917 99.95078214 241.2605086 64.42450944 64.42450944 150.05873392 99.95078213 241.26050859 99.95078215 91.06921396 0 176.83599917-35.52627269 241.26050861-99.95078215 64.42450944-64.42450944 99.95078213-150.05873392 99.95078213-241.2605086V373.34148791c-0.13256073-91.06921396-35.52627269-176.83599917-99.95078213-241.2605086z m30.88664753 241.2605086v278.64263136c0 150.05873392-122.08842221 272.14715614-272.14715614 272.14715614-150.05873392 0-272.14715614-122.08842221-272.14715613-272.14715614V373.34148791c0-150.05873392 122.08842221-272.14715614 272.14715613-272.14715612 150.05873392 0 272.14715614 122.08842221 272.14715614 272.14715612z" p-id="1992"></path></svg>