<?xml version="1.0" standalone="no"?><!DOCTYPE svg PUBLIC "-//W3C//DTD SVG 1.1//EN" "http://www.w3.org/Graphics/SVG/1.1/DTD/svg11.dtd"><svg t="1568796878366" class="icon" viewBox="0 0 1024 1024" version="1.1" xmlns="http://www.w3.org/2000/svg" p-id="3002" xmlns:xlink="http://www.w3.org/1999/xlink" width="200" height="200"><defs><style type="text/css"></style></defs><path d="M508.28829986 875.34893081l-121.4256186-99.0228571c-7.29083955-5.96523235-14.84680053-7.68852171-21.34227577-5.03730732-6.49547523 2.78377509-10.60485751 9.54437177-11.40022183 18.95618282l-5.16986804 55.41038055c-40.03333714-11.79790399-76.88521703-30.35640466-109.76027535-55.27781984-151.11921968-114.53246123-181.87330649-332.06460112-68.66645245-485.03967086 27.04238668-36.45419773 60.44768787-66.81060238 99.15541782-90.14128893 4.10938229-1.85585006 39.50309427-18.95618282 34.06810479-45.20320518-1.98841078-10.07461465-6.76059667-17.63057563-14.31655765-22.40276152-13.78631477-8.88156818-31.54945113-4.63962516-32.34481545-4.50706444l-0.66280359 0.13256071-0.53024287 0.26512145c-55.41038055 28.89823675-102.60199651 69.32925605-140.24924072 120.10001142-65.88267735 88.81568174-93.58786763 198.31083565-78.07826349 308.20367171C53.07479077 681.67772034 109.94333923 778.84472737 197.83109595 845.39020832c43.61247655 33.00761904 92.12969971 56.47086629 144.35862299 69.99205964l-5.03730731 53.95221263c-0.79536432 9.54437177 1.85585006 16.96777203 7.82108242 20.81203288 2.65121438 1.72328935 5.83267163 2.65121438 9.14668961 2.65121439 3.97682157 0 8.21876458-1.19304647 12.72582902-3.57913941l137.46546561-74.23400266c8.08620386-4.37450373 13.12351118-11.26766112 13.78631479-18.82362209 0.79536432-7.55596098-2.78377509-15.11192197-9.80949322-20.81203289zM876.14429513 434.31941866c-19.4864257-102.46943579-76.22241343-192.61072473-161.19383432-255.57706625-35.92395486-26.51214381-75.69217056-47.19161597-117.97903992-61.2430522l15.24448268-59.12208067c2.38609294-9.14668961 0.79536432-16.83521132-4.37450373-21.60739719-5.30242877-4.77218589-13.12351118-5.70011091-22.27020079-2.65121438L434.58454011 86.48009197c-8.74900746 3.04889653-14.84680053 9.01412889-16.70265061 16.43752916-1.85585006 7.42340027 0.66280359 15.50960413 6.89315738 22.27020079l107.3741824 116.78599345c6.49547523 7.0257181 13.78631477 9.94205392 20.8120329 8.21876458 6.89315739-1.72328935 12.06302544-7.82108242 14.31655765-16.96777204l12.32814687-48.119541c33.53786192 11.66534327 64.95475232 28.23543315 93.4553069 49.31258748 57.53135205 42.55199081 99.55309998 100.21590357 121.95586149 166.09858092-18.55850066-4.24194301-37.77980492-6.49547523-57.66391278-6.49547522-142.76789438 0-258.49340208 115.7255077-258.49340206 258.49340206s115.7255077 258.49340208 258.49340206 258.49340208 258.49340208-115.7255077 258.49340208-258.49340208c0.13256073-91.73201755-47.72185885-172.32893472-119.70232926-218.19494349zM737.35322231 842.07619035c-6.23035379 0-12.32814687-0.26512144-18.29337922-0.92792505-30.35640466-2.91633582-58.59183781-12.99095045-82.9830101-28.50055458-53.02428761-33.67042263-88.28543886-92.79250331-88.28543886-160.26590928 0-104.72296802 84.83886017-189.56182818 189.56182818-189.56182819 26.37958309 0 51.5661197 5.43498947 74.49912409 15.11192197 27.83775099 11.93046471 52.22892329 30.22384394 71.31766684 53.15684832 27.44006883 32.87505831 43.87759799 75.16192768 43.87759798 121.2930579C927.04761122 757.23733017 842.07619035 842.07619035 737.35322231 842.07619035z" fill="#515151" p-id="3003"></path><path d="M737.35322231 652.51436215m-108.8323503 0a108.83235031 108.83235031 0 1 0 217.66470063 0 108.83235031 108.83235031 0 1 0-217.66470063 0Z" fill="#515151" p-id="3004"></path></svg>