<?xml version="1.0" standalone="no"?><!DOCTYPE svg PUBLIC "-//W3C//DTD SVG 1.1//EN" "http://www.w3.org/Graphics/SVG/1.1/DTD/svg11.dtd"><svg t="1568796829066" class="icon" viewBox="0 0 1024 780" version="1.1" xmlns="http://www.w3.org/2000/svg" p-id="2370" xmlns:xlink="http://www.w3.org/1999/xlink" width="200" height="200"><defs><style type="text/css"></style></defs><path d="M655.6625 399.69375L447.3125 594.20625a38.925 38.925 0 0 1-36.50625-1.35 35.775 35.775 0 0 1-17.60625-30.9375v-377.4375a36.73125 36.73125 0 0 1 53.6625-32.2875l208.35 182.8125c11.7 10.8 20.7 18.84375 20.7 32.79375 0 13.05-7.65 20.64375-20.25 31.89375zM512 834C264.05 834 62 631.95 62 384c0-247.95 202.05-450 450-450 247.95 0 450 202.05 450 450 0 247.95-202.05 450-450 450z m0-843.75c-217.35 0-393.75 176.85-393.75 393.75 0 217.35 176.85 393.75 393.75 393.75 217.35 0 393.75-176.85 393.75-393.75 0-217.35-176.4-393.75-393.75-393.75z" p-id="2375"></path></svg>
