<?xml version="1.0" standalone="no"?><!DOCTYPE svg PUBLIC "-//W3C//DTD SVG 1.1//EN" "http://www.w3.org/Graphics/SVG/1.1/DTD/svg11.dtd"><svg t="1568796867359" class="icon" viewBox="0 0 1024 1024" version="1.1" xmlns="http://www.w3.org/2000/svg" p-id="2749" xmlns:xlink="http://www.w3.org/1999/xlink" width="200" height="200"><defs><style type="text/css"></style></defs><path d="M955.08161422 612.43027911h-110.33349689v-89.24546844c0-17.59277511-13.28196267-30.99124622-30.99124622-30.99124622H545.08839822v-79.34225067h110.33349689c17.59277511 0 30.99124622-13.28196267 30.99124622-30.99124623V99.44359822c0-17.59277511-13.28196267-30.99124622-30.99124622-30.99124622H372.88891733c-17.59277511 0-30.99124622 13.28196267-30.99124622 30.99124622v282.53297778c0 17.70928355 13.28196267 30.99124622 30.99124622 30.99124622h110.33349689v79.22574223H208.72851911c-17.59277511 0-30.99124622 13.28196267-30.99124622 30.99124622v89.24546844h-110.33349689c-17.59277511 0-30.99124622 13.28196267-30.99124622 30.99124622v282.53297778c0 17.59277511 13.28196267 30.99124622 30.99124622 30.99124622h282.53297778c17.70928355 0 30.99124622-13.28196267 30.99124622-30.99124622V643.42152533c0-17.59277511-13.28196267-30.99124622-30.99124622-30.99124622h-110.33349689v-58.37073066h543.162368v58.37073066h-110.33349689c-17.70928355 0-30.99124622 13.28196267-30.99124622 30.99124622v282.53297778c0 17.59277511 13.28196267 30.99124622 30.99124622 30.99124622h282.53297778c17.59277511 0 30.99124622-13.28196267 30.99124622-30.99124622V643.42152533c0.11650845-17.59277511-13.16545422-30.99124622-30.87473778-30.99124622zM98.39502222 894.96325689V674.41277155h220.55048533v220.55048534H98.39502222z m526.03562667-764.52841244v220.55048533H403.88016355V130.43484445h220.55048534z m299.65971911 543.9779271v220.55048534H703.53988267V674.41277155h220.55048533z" p-id="2750"></path></svg>