<?xml version="1.0" standalone="no"?><!DOCTYPE svg PUBLIC "-//W3C//DTD SVG 1.1//EN" "http://www.w3.org/Graphics/SVG/1.1/DTD/svg11.dtd"><svg t="1568796873616" class="icon" viewBox="0 0 1024 1024" version="1.1" xmlns="http://www.w3.org/2000/svg" p-id="2875" xmlns:xlink="http://www.w3.org/1999/xlink" width="200" height="200"><defs><style type="text/css"></style></defs><path d="M358.44166309 879.63506073c-47.08556739-19.93713215-89.64639558-48.49954839-126.26850354-84.98025827-36.62210797-36.62210797-65.18452423-79.18293616-85.12165637-126.12710545-20.64412265-49.06514079-31.10758207-100.95824361-31.10758206-154.54812361 0-53.58988001 10.46345942-105.48298279 31.10758206-154.5481236 19.79573404-47.08556739 48.35815029-89.50499748 84.98025826-126.12710545 36.76350606-36.62210797 79.18293616-65.32592233 126.12710546-85.12165637 49.06514079-20.64412265 100.95824361-31.10758207 154.5481236-31.10758206 53.58988001 0 105.62438091 10.46345942 154.5481236 31.10758206 47.08556739 19.79573404 89.50499748 48.35815029 126.12710546 84.98025826 36.62210797 36.76350606 65.32592233 79.18293616 85.12165637 126.26850356 14.13981003 33.22855357 23.47208465 68.15388433 27.99682386 103.78620561l1.83817529 14.84680052h75.36518745l-2.1209715-18.94734543C968.2916696 343.73626066 913.57060479 237.97048166 827.31776362 161.19131321c-86.25284116-76.92056656-197.95734038-119.19859854-314.32797692-119.19859853-260.17250452 0-471.84546063 211.67295612-471.84546063 471.84546063 0 116.37063653 42.27803199 228.07513575 119.19859854 314.32797691 76.77916845 86.25284116 182.68634556 140.97390597 297.92579728 154.26532742l18.94734545 2.12097149V909.32866179l-14.70540243-1.97957341c-36.33931177-4.24194301-71.26464254-13.71561572-104.06900182-27.71402765z" p-id="2876"></path><path d="M356.60348779 376.82341613l223.69179465 629.36294435 112.27009162-305.41989661 306.40968331-112.69428592-642.37156958-211.24876182z m414.43783192 215.34930673l-137.01475918 50.3377237L581.28506914 785.74672214l-102.93781701-289.86610557 292.69406758 96.29210629z" p-id="2877"></path></svg>