<?xml version="1.0" standalone="no"?><!DOCTYPE svg PUBLIC "-//W3C//DTD SVG 1.1//EN" "http://www.w3.org/Graphics/SVG/1.1/DTD/svg11.dtd"><svg t="1568796884684" class="icon" viewBox="0 0 1024 1024" version="1.1" xmlns="http://www.w3.org/2000/svg" p-id="3129" xmlns:xlink="http://www.w3.org/1999/xlink" width="200" height="200"><defs><style type="text/css"></style></defs><path d="M908.19999969 344.6c-21.70000031-51.19999969-52.69999969-97.2-92.1-136.69999969-39.49999969-39.49999969-85.5-70.5-136.69999969-92.1C626.40000031 93.39999969 570.00000031 81.99999969 512 81.99999969S397.59999969 93.39999969 344.6 115.80000031c-51.19999969 21.70000031-97.2 52.69999969-136.69999969 92.1-39.49999969 39.49999969-70.5 85.5-92.1 136.69999969C93.39999969 397.59999969 81.99999969 453.99999969 81.99999969 512c0 58.00000031 11.4 114.40000031 33.79999969 167.4 21.70000031 51.19999969 52.69999969 97.2 92.1 136.69999969 39.49999969 39.49999969 85.5 70.5 136.69999968 92.1C397.59999969 930.60000031 453.99999969 942.00000031 512 942.00000031s114.40000031-11.4 167.4-33.79999969c51.19999969-21.70000031 97.2-52.69999969 136.69999969-92.1 39.49999969-39.49999969 70.5-85.5 92.1-136.69999968C930.60000031 626.40000031 942.00000031 570.00000031 942.00000031 512 942.00000031 453.99999969 930.60000031 397.59999969 908.19999969 344.6zM773.6 773.6C703.7 843.5 610.80000031 882.00000031 512 882.00000031s-191.7-38.50000031-261.6-108.40000031S141.99999969 610.80000031 141.99999969 512c0-98.80000031 38.50000031-191.7 108.40000031-261.6S413.19999969 141.99999969 512 141.99999969s191.7 38.50000031 261.6 108.40000031S882.00000031 413.19999969 882.00000031 512C882.00000031 610.80000031 843.5 703.7 773.6 773.6z" p-id="3130"></path><path d="M512 512m-180 0a168.75 168.75 0 1 0 360 0 168.75 168.75 0 1 0-360 0Z" p-id="3131"></path></svg>