<?xml version="1.0" standalone="no"?><!DOCTYPE svg PUBLIC "-//W3C//DTD SVG 1.1//EN" "http://www.w3.org/Graphics/SVG/1.1/DTD/svg11.dtd"><svg t="1568796753522" class="icon" viewBox="0 0 1024 1024" version="1.1" xmlns="http://www.w3.org/2000/svg" p-id="2117" xmlns:xlink="http://www.w3.org/1999/xlink" width="200" height="200"><defs><style type="text/css"></style></defs><path d="M314.0288512 340.25101843l165.41092219-171.37615455v464.045367c0 19.13845381 12.67611875 31.81457257 31.81457256 31.81457255 19.13845381 0 31.81457257-12.67611875 31.81457257-31.81457255V168.50203685l171.74898157 171.74898158c6.33805938 6.33805938 19.13845381 6.33805938 25.47651319 6.33805938s12.67611875 0 19.1384538-6.33805938c12.67611875-12.67611875 12.67611875-31.81457257 0-44.49069132L581.22155045 111.21095111c-19.13845381-12.67611875-44.49069132-25.47651318-69.9672045-25.47651319s-44.49069132 12.67611875-63.62914512 25.47651319L263.07582483 295.76032711c-6.33805938 12.67611875-6.33805938 31.81457257 6.33805938 44.49069132 12.80039443 12.67611875 31.81457257 12.67611875 44.61496699 0z" fill="#515151" p-id="2118"></path><path d="M918.5057299 436.31611449c-19.13845381 0-31.81457257 12.67611875-31.81457257 31.81457256v349.9602982c0 19.13845381-12.67611875 31.81457257-25.47651318 31.81457256H154.95598838c-12.67611875 0-25.47651318-12.67611875-25.47651318-31.81457256V468.13068705c0-19.13845381-12.67611875-31.81457257-31.81457257-31.81457256-19.13845381 0-31.81457257 12.67611875-31.81457255 31.81457256v349.9602982c0 50.95302637 38.15263195 95.44371769 89.1056583 95.44371768h712.59671514c50.95302637 0 89.10565831-44.49069132 89.10565831-95.44371768V468.13068705c0-19.01417813-19.13845381-31.81457257-38.15263193-31.81457256z" fill="#515151" p-id="2119"></path></svg>