<?xml version="1.0" standalone="no"?><!DOCTYPE svg PUBLIC "-//W3C//DTD SVG 1.1//EN" "http://www.w3.org/Graphics/SVG/1.1/DTD/svg11.dtd"><svg t="1568796717149" class="icon" viewBox="0 0 1024 1024" version="1.1" xmlns="http://www.w3.org/2000/svg" p-id="1863" xmlns:xlink="http://www.w3.org/1999/xlink" width="200" height="200"><defs><style type="text/css"></style></defs><path d="M846.99818667 64.7168H175.90954667c-61.49461333 0-111.84810667 50.35349333-111.84810667 111.84810667v671.08864c0 61.49461333 50.35349333 111.84810667 111.84810667 111.84810666h671.08864c61.49461333 0 111.84810667-50.35349333 111.84810666-111.84810666V176.56490667c0-61.49461333-50.35349333-111.84810667-111.84810666-111.84810667z m55.92405333 782.93674667c0 30.80192-25.12213333 55.92405333-55.92405333 55.92405333H175.90954667c-30.80192 0-55.92405333-25.12213333-55.92405334-55.92405333V344.33706667h782.93674667v503.31648z m0-559.24053334H119.98549333V176.56490667c0-30.80192 25.12213333-55.92405333 55.92405334-55.92405334h671.08864c30.80192 0 55.92405333 25.12213333 55.92405333 55.92405334v111.84810666z m0 0" p-id="1864"></path><path d="M175.90954667 204.52693333c0 15.40096 12.56106667 27.96202667 27.96202666 27.96202667 15.40096 0 27.96202667-12.56106667 27.96202667-27.96202667 0-15.40096-12.56106667-27.96202667-27.96202667-27.96202666-15.51018667 0-27.96202667 12.56106667-27.96202666 27.96202666z m0 0M287.75765333 204.52693333c0 15.40096 12.56106667 27.96202667 27.96202667 27.96202667 15.40096 0 27.96202667-12.56106667 27.96202667-27.96202667 0-15.40096-12.56106667-27.96202667-27.96202667-27.96202666-15.51018667 0-27.96202667 12.56106667-27.96202667 27.96202666z m0 0M399.60576 204.52693333c0 15.40096 12.56106667 27.96202667 27.96202667 27.96202667 15.40096 0 27.96202667-12.56106667 27.96202666-27.96202667 0-15.40096-12.56106667-27.96202667-27.96202666-27.96202666-15.51018667 0-27.96202667 12.56106667-27.96202667 27.96202666z m0 0" p-id="1865"></path></svg>