<?xml version="1.0" standalone="no"?><!DOCTYPE svg PUBLIC "-//W3C//DTD SVG 1.1//EN" "http://www.w3.org/Graphics/SVG/1.1/DTD/svg11.dtd"><svg t="1568796855896" class="icon" viewBox="0 0 1024 1024" version="1.1" xmlns="http://www.w3.org/2000/svg" p-id="2623" xmlns:xlink="http://www.w3.org/1999/xlink" width="200" height="200"><defs><style type="text/css"></style></defs><path d="M561.31258747 875.34893081l-121.42561862-99.0228571c-7.29083955-5.96523235-14.84680053-7.68852171-21.34227575-5.03730732-6.49547523 2.78377509-10.60485751 9.54437177-11.40022184 18.95618282l-5.16986804 55.41038055c-40.03333714-11.79790399-76.88521703-30.35640466-109.76027535-55.27781984-151.11921968-114.53246123-181.87330649-332.06460112-68.66645244-485.03967086 27.04238668-36.45419773 60.44768787-66.81060238 99.15541782-90.14128893 4.10938229-1.85585006 39.50309427-18.95618282 34.06810478-45.20320518-1.98841078-10.07461465-6.76059667-17.63057563-14.31655766-22.40276152-13.78631477-8.88156818-31.54945113-4.63962516-32.34481543-4.50706444l-0.66280359 0.13256071-0.53024288 0.26512145c-55.41038055 28.89823675-102.60199651 69.32925605-140.24924071 120.10001142-65.88267735 88.81568174-93.58786763 198.31083565-78.0782635 308.20367171C106.09907838 681.67772034 162.96762685 778.84472737 250.85538355 845.39020832c43.61247655 33.00761904 92.12969971 56.47086629 144.35862301 69.99205964l-5.03730734 53.95221263c-0.79536432 9.54437177 1.85585006 16.96777203 7.82108243 20.81203288 2.65121438 1.72328935 5.83267163 2.65121438 9.14668961 2.65121439 3.97682157 0 8.21876458-1.19304647 12.72582903-3.57913941l137.46546561-74.23400266c8.08620386-4.37450373 13.12351118-11.26766112 13.78631477-18.82362209 0.79536432-7.55596098-2.78377509-15.11192197-9.8094932-20.81203289zM932.35003999 453.01048003c-15.77472557-110.15795749-74.23400265-207.59008597-164.37529158-274.26812762-35.92395486-26.51214381-75.69217056-47.19161597-117.97903992-61.2430522l15.24448269-59.12208067c2.38609294-9.14668961 0.79536432-16.83521132-4.37450373-21.60739719-5.30242877-4.77218589-13.12351118-5.70011091-22.27020078-2.65121438L487.6088277 86.48009197c-8.74900746 3.04889653-14.84680053 9.01412889-16.7026506 16.43752916-1.85585006 7.42340027 0.66280359 15.50960413 6.8931574 22.27020079l107.3741824 116.78599345c6.49547523 7.0257181 13.78631477 9.94205392 20.81203288 8.21876458 6.89315739-1.72328935 12.06302544-7.82108242 14.31655765-16.96777204l12.32814687-48.119541c33.53786192 11.66534327 64.95475232 28.23543315 93.45530691 49.31258748 75.16192768 55.54294126 123.81171155 136.80266203 136.93522274 228.53467957 13.12351118 91.46689612-10.4722968 182.40354935-66.54548094 256.37243057-27.70519027 36.58675845-61.90585578 66.9431631-101.8066322 90.14128893-2.91633582 1.59072863-41.35894433 22.66788295-32.60993689 49.84283036 5.96523235 18.69106139 20.81203289 23.72836869 33.27274048 23.72836869 4.77218589 0 9.14668961-0.79536432 12.46070758-1.72328934l0.39768216-0.13256072 0.39768215-0.26512144c57.00110917-29.03079746 105.2532109-69.46181677 143.69581942-120.10001143 67.47340597-88.68312101 95.84139984-198.04571421 80.06667428-307.80598955z" fill="#515151" p-id="2624"></path></svg>