<?xml version="1.0" standalone="no"?><!DOCTYPE svg PUBLIC "-//W3C//DTD SVG 1.1//EN" "http://www.w3.org/Graphics/SVG/1.1/DTD/svg11.dtd"><svg t="1568796829083" class="icon" viewBox="0 0 1024 1024" version="1.1" xmlns="http://www.w3.org/2000/svg" p-id="2370" xmlns:xlink="http://www.w3.org/1999/xlink" width="200" height="200"><defs><style type="text/css"></style></defs><path d="M884.62818114 82.90095255v791.65261395H137.64852951V82.90095255h-68.53389173V941.4967296h884.04743509V82.90095255z" p-id="2371"></path><path d="M308.65185703 557.86600878V286.51421696h-121.16049717v67.07572382h52.62660545v204.276068zM571.65232355 490.79028496H413.90506793v-35.12859054h157.74725562V286.51421696H345.3711762v67.07572382h157.74725562V388.71853132h-157.74725562v169.14747746H571.65232355zM834.78535079 286.51421696H608.37164272v67.07572382h157.87981635V388.71853132H608.37164272v66.9431631h157.87981635V490.79028496H608.37164272v67.07572382h226.41370807zM176.75394162 82.90095255h668.76882741v66.94316311H176.75394162zM387.52548485 809.59881419v-118.11160064H213.73838222v118.11160064h68.53389173v-51.16843755h36.71931917v51.16843755zM598.03190665 809.59881419v-118.11160064H424.24480402v118.11160064h68.53389171v-51.16843755h36.71931918v51.16843755zM808.40576771 809.59881419v-118.11160064h-173.65454191v118.11160064h68.53389174v-51.16843755H740.0044367v51.16843755z" p-id="2372"></path></svg>