<?xml version="1.0" standalone="no"?><!DOCTYPE svg PUBLIC "-//W3C//DTD SVG 1.1//EN" "http://www.w3.org/Graphics/SVG/1.1/DTD/svg11.dtd"><svg t="1568796829066" class="icon" viewBox="0 0 1024 780" version="1.1" xmlns="http://www.w3.org/2000/svg" p-id="2370" xmlns:xlink="http://www.w3.org/1999/xlink" width="200" height="200"><defs><style type="text/css"></style></defs><path d="M428.25561435 556.96049707a31.30389844 31.30389844 0 0 1-33.26039208-28.56480821v-287.60456865a31.30389844 31.30389844 0 0 1 33.26039208-28.5648082 31.30389844 31.30389844 0 0 1 33.26039297 28.5648082V528.39568887a31.30389844 31.30389844 0 0 1-33.26039297 28.5648082z m165.51936475 0a31.30389844 31.30389844 0 0 1-33.26039296-28.56480821v-287.60456865a33.65169082 33.65169082 0 0 1 66.52078505 0V528.39568887a31.30389844 31.30389844 0 0 1-33.26039208 28.5648082z m1e-8 0M515.90653086-65.98708710999995A449.21094609 449.21094609 0 0 0 340.99599658 798.39181553a449.21094609 449.21094609 0 0 0 349.82106855-827.98812071 446.47185498 446.47185498 0 0 0-174.91053427-35.21688574z m0 834.64019825a385.42925215 385.42925215 0 0 1-273.90911308-657.77317032A385.42925215 385.42925215 0 1 1 788.25044902 657.13297207a382.69016104 382.69016104 0 0 1-273.90911308 112.69403525z m0 0" p-id="2375"></path></svg>
